<svg xmlns="http://www.w3.org/2000/svg" viewBox="0 0 512 512" id="video-upload"><g><path d="M292.607,221.137a10,10,0,0,0-4.9-8.6l-128.94-76.378a9.69,9.69,0,0,0-9.881-.085A9.851,9.851,0,0,0,144,144.759V297.515a9.849,9.849,0,0,0,4.882,8.688,9.688,9.688,0,0,0,4.868,1.312,9.838,9.838,0,0,0,5.055-1.4L287.724,229.74A9.978,9.978,0,0,0,292.607,221.137ZM164,279.969V162.305l99.319,58.832Z"></path><path d="M373.1,299.737a10,10,0,0,0-13.92,0l-38.149,36.976a9.976,9.976,0,0,0,13.851,14.361L356,330.537v68.819a10,10,0,0,0,20,0V330.537l21.258,20.537a10.021,10.021,0,0,0,13.98-14.361Z"></path><path d="M376,247.641V92.868A39.588,39.588,0,0,0,336.406,53H79.868A39.82,39.82,0,0,0,40,92.868V349.406A39.588,39.588,0,0,0,79.868,389H266.535A105.848,105.848,0,1,0,376,247.641ZM79.868,369A19.566,19.566,0,0,1,60,349.406V92.868A19.8,19.8,0,0,1,79.868,73H336.406A19.567,19.567,0,0,1,356,92.868V247.593c-53,4.929-96.061,50.175-96.061,105.341A100.345,100.345,0,0,0,261.39,369Zm286.269,70.132a85.992,85.992,0,0,1-.3-171.983c.189.011.375.029.566.029.131,0,.257-.015.386-.02a85.988,85.988,0,0,1-.655,171.974Z"></path></g></svg>